<svg width="94" height="94" viewBox="0 0 94 94" fill="none" xmlns="http://www.w3.org/2000/svg">
<path d="M54.1848 83.8156C51.6178 87.1168 46.8165 87.7174 43.5154 85.1503L10.5039 59.4798C7.2027 56.9127 6.60207 52.1115 9.16913 48.8103L29.0055 23.3014C31.5725 20.0003 36.3738 19.3996 39.6749 21.9667L72.6865 47.6373C75.9876 50.2043 76.5882 55.0056 74.0212 58.3067L54.1848 83.8156Z" fill="#FDD888"/>
<path d="M82.0233 57.3056C79.4563 60.6067 74.655 61.2074 71.3539 58.6403L29.3392 25.9687C26.0381 23.4016 25.4374 18.6004 28.0045 15.2992C30.5716 11.9981 35.3728 11.3974 38.674 13.9645L80.6886 46.6361C83.9898 49.2032 84.5904 54.0044 82.0233 57.3056Z" fill="#FDD888"/>
<path d="M27.8384 24.8018L72.8541 59.8071L70.5204 62.8081L25.5047 27.8028L27.8384 24.8018Z" fill="#FCAB40"/>
<path d="M65.8488 25.4651L62.8478 23.1314C60.3614 21.1979 56.7791 21.6461 54.8457 24.1324L21.0072 67.6476L33.0114 76.9824L66.8498 33.4672C68.7821 30.9823 68.3352 27.3985 65.8488 25.4651Z" fill="#DA2F47"/>
<path d="M56.6802 27.9666C58.3308 29.2501 59.1775 28.666 58.5603 26.6667L53.965 11.7617C53.3478 9.76239 51.2634 8.77965 49.3298 9.57555L42.1881 12.517C40.2545 13.3129 40.0244 15.0146 41.675 16.2981L56.6802 27.9666ZM62.6823 32.6339C61.0318 31.3504 61.3893 30.386 63.479 30.4916L79.0582 31.2748C81.1465 31.3793 82.6139 33.1585 82.3188 35.2286L81.2284 42.8733C80.9307 44.9437 79.3382 45.5859 77.6876 44.3024L62.6823 32.6339Z" fill="#DA2F47"/>
</svg>
