<svg width="28" height="28" viewBox="0 0 28 28" fill="none" xmlns="http://www.w3.org/2000/svg">
<path d="M14 28C21.732 28 28 21.732 28 14C28 6.26801 21.732 0 14 0C6.26801 0 0 6.26801 0 14C0 21.732 6.26801 28 14 28Z" fill="#FFCC4D"/>
<path d="M8.94444 14.7779C10.0183 14.7779 10.8889 13.5592 10.8889 12.0557C10.8889 10.5523 10.0183 9.3335 8.94444 9.3335C7.87056 9.3335 7 10.5523 7 12.0557C7 13.5592 7.87056 14.7779 8.94444 14.7779Z" fill="#664500"/>
<path d="M22.133 13.8419C22.0863 13.7369 20.9671 11.2776 18.6664 11.2776C16.3665 11.2776 15.2465 13.7369 15.1999 13.8419C15.1283 14.0029 15.175 14.1911 15.3126 14.3016C15.4487 14.412 15.644 14.4159 15.7871 14.3125C15.7964 14.3055 16.7686 13.6109 18.6664 13.6109C20.5533 13.6109 21.524 14.2961 21.5457 14.3117C21.6142 14.363 21.6966 14.3887 21.7775 14.3887C21.8631 14.3887 21.9494 14.3599 22.0202 14.3039C22.1579 14.1934 22.2053 14.0037 22.133 13.8419ZM4.66563 8.55534C4.50386 8.55534 4.33974 8.50478 4.19974 8.39978C3.85597 8.14234 3.78674 7.65467 4.04419 7.31089C6.5813 3.92756 9.96774 3.88867 10.1109 3.88867C10.5402 3.88867 10.8886 4.23712 10.8886 4.66645C10.8886 5.09501 10.5425 5.44267 10.114 5.44423C9.99341 5.44578 7.33886 5.51112 5.28863 8.24423C5.13619 8.44801 4.90208 8.55534 4.66563 8.55534ZM22.5561 10.8887C22.3189 10.8887 22.0863 10.7813 21.9331 10.5776C19.9171 7.88956 16.519 8.53356 16.4855 8.53978C16.0601 8.62534 15.6549 8.35001 15.5701 7.93001C15.4861 7.50923 15.7591 7.09934 16.1799 7.01456C16.3595 6.97801 20.5797 6.18078 23.1767 9.64345C23.435 9.98723 23.365 10.4749 23.0212 10.7323C22.882 10.8381 22.7186 10.8887 22.5561 10.8887ZM15.6167 21.0324C16.6551 20.712 17.6615 20.1333 17.6615 19.088C17.6615 17.051 13.8411 16.7796 13.4055 16.7554C13.1924 16.7352 13.0096 16.9056 12.9956 17.1194C12.9824 17.3326 13.1434 17.5169 13.3565 17.5317C13.3837 17.5332 16.106 17.7642 16.106 19.088C16.106 20.4118 13.3837 20.6428 13.3565 20.6443C13.3456 20.6451 13.3379 20.6513 13.3277 20.6529C13.2873 20.6576 13.2492 20.6669 13.2142 20.684L13.1994 20.6926C13.1629 20.7128 13.131 20.7369 13.1022 20.7688C13.0913 20.7804 13.0835 20.7929 13.0742 20.8061C13.0563 20.831 13.04 20.8551 13.0283 20.8855C13.019 20.908 13.0143 20.9329 13.0096 20.957C13.0065 20.9749 12.9972 20.9912 12.9956 21.0091C12.9956 21.0177 12.9987 21.0254 12.9987 21.0332C12.9987 21.041 12.9949 21.0496 12.9956 21.0573C12.9964 21.076 13.0057 21.0923 13.0096 21.1102C13.0143 21.1343 13.0182 21.1577 13.0275 21.1802C13.0376 21.2036 13.0516 21.2246 13.0656 21.2456C13.0789 21.2642 13.0905 21.2844 13.1061 21.3008C13.124 21.3187 13.145 21.3327 13.1667 21.3482C13.1854 21.3615 13.2025 21.3747 13.2243 21.3848C13.2492 21.3965 13.2756 21.4011 13.3029 21.4058C13.3215 21.4104 13.3371 21.4198 13.3565 21.4213C13.3837 21.4229 16.106 21.6539 16.106 22.9777C16.106 24.3014 13.3837 24.5324 13.3565 24.534C13.1434 24.5496 12.9824 24.7339 12.9956 24.9462C13.0089 25.1523 13.18 25.311 13.3837 25.311L13.4055 25.3102C13.8411 25.2861 17.6615 25.0147 17.6615 22.9777C17.6615 21.9316 16.6551 21.3529 15.6167 21.0324Z" fill="#664500"/>
<path d="M26.6014 20.069C26.4178 19.4545 25.9955 18.9132 25.374 18.6107C24.6569 18.2614 23.8527 18.3065 23.2017 18.6573C23.0773 17.9293 22.6184 17.2659 21.9028 16.9174C20.7229 16.3419 19.2988 16.8319 18.724 18.011C18.6424 18.1782 18.584 18.3509 18.5452 18.5235C17.9424 20.5115 19.0429 23.4554 20.25 24.7053C21.2067 24.8064 22.5468 24.5513 23.7602 24.0263C24.9268 22.8908 25.8858 21.5507 26.6014 20.069Z" fill="#FFAC33"/>
<path d="M27.7312 21.1728C28.306 19.9937 27.8167 18.5696 26.6384 17.9948C25.9213 17.6456 25.1171 17.6907 24.4661 18.0415C24.3416 17.3135 23.8827 16.65 23.1672 16.3016C21.9873 15.726 20.5632 16.2168 19.9884 17.3951C19.9067 17.5624 19.8484 17.735 19.8095 17.9077C19.2075 19.8957 20.3073 22.8396 21.5144 24.0895C23.2434 24.2715 26.241 23.328 27.4372 21.6309C27.55 21.4917 27.6495 21.34 27.7312 21.1728Z" fill="#DD2E44"/>
</svg>
