<svg width="28" height="28" viewBox="0 0 28 28" fill="none" xmlns="http://www.w3.org/2000/svg">
<path d="M28 14C28 21.7319 21.7319 28 14 28C6.26811 28 0 21.7319 0 14C0 6.26811 6.26811 0 14 0C21.7319 0 28 6.26811 28 14Z" fill="#FFCC4D"/>
<path d="M13.9999 16.3331C11.182 16.3331 9.31222 16.0049 6.99989 15.5553C6.47178 15.4534 5.44434 15.5553 5.44434 17.1109C5.44434 20.222 9.01822 24.1109 13.9999 24.1109C18.9808 24.1109 22.5554 20.222 22.5554 17.1109C22.5554 15.5553 21.528 15.4526 20.9999 15.5553C18.6876 16.0049 16.8178 16.3331 13.9999 16.3331Z" fill="#664500"/>
<path d="M7 17.1113C7 17.1113 9.33333 17.8891 14 17.8891C18.6667 17.8891 21 17.1113 21 17.1113C21 17.1113 19.4444 20.2224 14 20.2224C8.55556 20.2224 7 17.1113 7 17.1113Z" fill="white"/>
<path d="M12.1969 3.43211L8.66427 4.05511L6.84427 0.747223C6.6436 0.382445 6.23138 0.187223 5.82382 0.258779C5.41394 0.331112 5.09505 0.656223 5.03127 1.06689L4.45182 4.79789L0.919158 5.42089C0.503046 5.494 0.181824 5.82922 0.125046 6.24845C0.0682687 6.66767 0.289158 7.07522 0.671824 7.25722L3.83738 8.75989L3.2556 12.5026C3.19105 12.9194 3.4026 13.3301 3.77905 13.5207C3.91827 13.5907 4.0676 13.6241 4.21616 13.6241C4.47049 13.6241 4.72171 13.5246 4.90916 13.3348L7.64071 10.5651L11.1547 12.2334C11.5358 12.4139 11.99 12.3291 12.2794 12.0219C12.5687 11.7147 12.6263 11.2566 12.4233 10.8871L10.597 7.56756L13.0587 5.07244C13.3558 4.77145 13.4235 4.31256 13.2275 3.93767C13.0299 3.56278 12.6107 3.35978 12.1969 3.43211ZM15.8027 3.43211L19.3354 4.05511L21.1554 0.747223C21.356 0.382445 21.7683 0.187223 22.1758 0.258779C22.5849 0.331112 22.9038 0.656223 22.9676 1.06689L23.547 4.79789L27.0797 5.42089C27.4966 5.494 27.8178 5.82845 27.8738 6.24767C27.9298 6.66689 27.7097 7.07445 27.327 7.25644L24.1615 8.75911L24.7433 12.5018C24.8078 12.9187 24.5963 13.3293 24.2198 13.5199C24.0806 13.5899 23.9313 13.6233 23.7827 13.6233C23.5284 13.6233 23.2772 13.5238 23.0897 13.334L20.3582 10.5643L16.8442 12.2327C16.463 12.4131 16.0088 12.3283 15.7195 12.0211C15.4302 11.7139 15.3726 11.2558 15.5756 10.8863L17.4018 7.56756L14.9402 5.07244C14.643 4.77145 14.5754 4.31256 14.7714 3.93767C14.9697 3.56278 15.3889 3.35978 15.8027 3.43211Z" fill="#E95F28"/>
</svg>
