<svg width="26" height="28" viewBox="0 0 26 28" fill="none" xmlns="http://www.w3.org/2000/svg">
<path d="M25.0707 13.8399C25.0707 13.446 24.9768 13.0764 24.8194 12.7405C23.7693 9.35317 18.8535 9.60061 11.8612 9.43539C10.6921 9.40798 11.3608 8.02752 11.7711 4.99723C12.0381 3.02637 10.7673 0 8.63123 0C5.1092 0 8.49733 2.77815 5.38326 9.64837C3.71934 13.3192 0 11.263 0 14.9502V23.3426C0 24.7779 0.140944 26.1576 2.15957 26.3846C4.11633 26.6054 3.67628 28 6.49906 28H20.6279C22.0671 28 23.2377 26.8286 23.2377 25.3894C23.2377 24.7928 23.0286 24.2493 22.6911 23.8093C23.4898 23.3622 24.0379 22.5181 24.0379 21.5393C24.0379 20.9442 23.8296 20.4008 23.4929 19.9615C24.294 19.5152 24.8437 18.6703 24.8437 17.69C24.8437 16.9782 24.5555 16.333 24.0912 15.8608C24.6839 15.3824 25.0707 14.6589 25.0707 13.8399Z" fill="#FFDB5E"/>
<path d="M15.7248 16.4495H22.4619C23.3781 16.4495 24.2378 15.9593 24.7061 15.1708C24.8987 14.8459 24.7914 14.4254 24.4657 14.232C24.1407 14.0386 23.7202 14.1474 23.5268 14.4724C23.3052 14.8474 22.8957 15.0792 22.4611 15.0792H15.5627C14.8792 15.0792 14.3232 14.5233 14.3232 13.8397C14.3232 13.1561 14.8792 12.6002 15.5627 12.6002H20.1724C20.5506 12.6002 20.8575 12.2932 20.8575 11.915C20.8575 11.5368 20.5506 11.2299 20.1724 11.2299H15.562C14.1228 11.2299 12.9521 12.4005 12.9521 13.8397C12.9521 14.6423 13.3241 15.3525 13.8957 15.8317C13.4141 16.3054 13.1142 16.9631 13.1142 17.6898C13.1142 18.4947 13.4885 19.2073 14.0633 19.6857C13.5848 20.1586 13.2881 20.814 13.2881 21.5391C13.2881 22.4161 13.7258 23.1897 14.3913 23.6634C13.981 24.1246 13.7242 24.7252 13.7242 25.3892C13.7242 26.8284 14.8948 27.999 16.334 27.999H20.6281C21.5442 27.999 22.4048 27.5096 22.873 26.7211C23.0664 26.3962 22.9591 25.9757 22.6342 25.7823C22.3085 25.5905 21.888 25.6962 21.6953 26.0211C21.4722 26.3962 21.0627 26.6287 20.6281 26.6287H16.334C15.6504 26.6287 15.0945 26.0728 15.0945 25.3892C15.0945 24.7056 15.6504 24.1497 16.334 24.1497H21.4283C22.3445 24.1497 23.2058 23.6595 23.6733 22.871C23.8667 22.5453 23.7594 22.1248 23.4344 21.9322C23.1063 21.7356 22.6874 21.8461 22.4956 22.171C22.2693 22.5523 21.87 22.7794 21.4283 22.7794H15.8979C15.2143 22.7794 14.6583 22.2227 14.6583 21.5391C14.6583 20.8555 15.2143 20.2996 15.8979 20.2996H22.2333C23.1494 20.2996 24.01 19.8102 24.4782 19.0217C24.6716 18.6968 24.5643 18.2763 24.2394 18.0829C23.9129 17.8902 23.4932 17.9967 23.3005 18.3217C23.0742 18.7022 22.6749 18.9293 22.2333 18.9293H15.7248C15.0412 18.9293 14.4853 18.3734 14.4853 17.6898C14.4853 17.0062 15.0405 16.4495 15.7248 16.4495Z" fill="#EE9547"/>
</svg>
