<svg width="56" height="55" viewBox="0 0 56 55" fill="none" xmlns="http://www.w3.org/2000/svg">
<path d="M3.39303 54.2543C0.475543 54.2543 -0.810559 52.135 0.532562 49.5454L25.2552 1.94222C26.5999 -0.647407 28.7999 -0.647407 30.1446 1.94222L54.8672 49.547C56.2135 52.135 54.9258 54.2543 52.0083 54.2543H3.39303Z" fill="#FFCC4D"/>
<path d="M23.8726 44.6767C23.8726 42.5654 25.5911 40.8469 27.7039 40.8469C29.8152 40.8469 31.5337 42.5654 31.5337 44.6767C31.5337 46.7895 29.8137 48.508 27.7039 48.508C25.5911 48.508 23.8726 46.7895 23.8726 44.6767ZM24.1672 15.7029C24.1672 13.6407 25.6893 12.3641 27.7024 12.3641C29.6679 12.3641 31.2391 13.6898 31.2391 15.7029V34.6112C31.2391 36.6243 29.6679 37.95 27.7024 37.95C25.6893 37.95 24.1672 36.6718 24.1672 34.6112V15.7029Z" fill="#231F20"/>
</svg>
