<svg width="13" height="17" viewBox="0 0 13 17" fill="none" xmlns="http://www.w3.org/2000/svg">
<path d="M1.5625 15.625H11.6875" stroke="#06D24E" stroke-width="1.5" stroke-linecap="round" stroke-linejoin="round"/>
<path d="M6.625 8.875C7.86764 8.875 8.875 7.86764 8.875 6.625C8.875 5.38236 7.86764 4.375 6.625 4.375C5.38236 4.375 4.375 5.38236 4.375 6.625C4.375 7.86764 5.38236 8.875 6.625 8.875Z" stroke="#06D24E" stroke-width="1.5" stroke-linecap="round" stroke-linejoin="round"/>
<path d="M12.25 6.625C12.25 11.6875 6.625 15.625 6.625 15.625C6.625 15.625 1 11.6875 1 6.625C1 5.13316 1.59263 3.70242 2.64752 2.64752C3.70242 1.59263 5.13316 1 6.625 1C8.11684 1 9.54758 1.59263 10.6025 2.64752C11.6574 3.70242 12.25 5.13316 12.25 6.625V6.625Z" stroke="#06D24E" stroke-width="1.5" stroke-linecap="round" stroke-linejoin="round"/>
</svg>
