<svg width="156" height="104" viewBox="0 0 156 104" fill="none" xmlns="http://www.w3.org/2000/svg">
<path d="M1.80889 0.13311H155.46V103.221H0.390625V0.13311H1.80889ZM119.151 46.7936C118.888 46.7936 118.623 46.7445 118.374 46.6506C118.124 46.5571 117.893 46.4195 117.691 46.243C116.706 45.3813 115.704 44.5263 114.816 43.7698L114.763 43.7242C112.146 41.4944 109.885 39.5674 108.293 37.6463C107.377 36.5408 106.702 35.4561 106.254 34.3548C105.798 33.2348 105.578 32.1046 105.578 30.926C105.578 29.7894 105.775 28.6898 106.152 27.676C106.53 26.6585 107.088 25.7346 107.807 24.9546C108.54 24.1597 109.411 23.5421 110.373 23.1232C111.337 22.7043 112.386 22.4841 113.475 22.4841C114.295 22.4841 115.084 22.615 115.834 22.8736L115.893 22.8968C116.621 23.1554 117.308 23.534 117.948 24.0296C118.281 24.2856 118.594 24.5691 118.89 24.8769L119.151 25.1622L119.414 24.8769C119.71 24.5691 120.023 24.2856 120.354 24.0296C121.016 23.5174 121.724 23.131 122.469 22.8736L122.527 22.857C123.264 22.6096 124.034 22.4841 124.829 22.4841C125.917 22.4841 126.966 22.7043 127.93 23.1237C128.892 23.5421 129.763 24.1597 130.495 24.9546C131.215 25.7346 131.773 26.6585 132.151 27.676C132.528 28.6893 132.726 29.7894 132.726 30.926C132.726 32.1046 132.506 33.2348 132.05 34.3548C131.601 35.4557 130.926 36.5404 130.01 37.6463C128.419 39.5674 126.157 41.4939 123.541 43.7238L122.13 44.9298C121.614 45.3727 121.097 45.8182 120.612 46.243C120.41 46.4204 120.179 46.558 119.933 46.6506L119.891 46.6646C119.652 46.7494 119.402 46.7936 119.151 46.7936ZM113.475 25.4101C112.789 25.4101 112.136 25.5449 111.544 25.8023L111.508 25.8167C110.93 26.0727 110.404 26.4496 109.957 26.9348C109.491 27.4395 109.129 28.0438 108.883 28.7146C108.634 29.3926 108.503 30.1415 108.503 30.926C108.503 31.7484 108.655 32.5275 108.979 33.3044C109.311 34.1047 109.828 34.9153 110.545 35.7812C111.981 37.5149 114.148 39.3616 116.655 41.4984C117.118 41.9114 117.606 42.3123 118.079 42.7149L119.149 43.6385C119.954 42.9419 120.817 42.2071 121.594 41.5445L121.645 41.502C124.154 39.3634 126.322 37.5153 127.759 35.7812C128.476 34.9153 128.993 34.1042 129.325 33.3044C129.647 32.5275 129.8 31.7489 129.8 30.926C129.8 30.1415 129.669 29.3926 129.421 28.7146C129.175 28.0438 128.812 27.4395 128.347 26.9348C127.893 26.4423 127.353 26.0601 126.76 25.8023C126.168 25.5449 125.515 25.4101 124.829 25.4101C124.331 25.4101 123.859 25.4872 123.418 25.6403C122.972 25.7946 122.544 26.0289 122.14 26.3412C121.773 26.6251 121.459 26.9488 121.201 27.2643C120.939 27.583 120.73 27.8972 120.575 28.1567C120.426 28.4082 120.217 28.6109 119.971 28.7503C119.723 28.8907 119.443 28.9675 119.151 28.9675C118.86 28.9675 118.579 28.8907 118.332 28.7503C118.087 28.6109 117.878 28.4086 117.728 28.1567C117.553 27.8638 117.308 27.4991 116.992 27.1338C116.756 26.8598 116.479 26.5849 116.163 26.3412C115.76 26.0293 115.332 25.7946 114.886 25.6403C114.444 25.4876 113.973 25.4101 113.475 25.4101ZM41.7316 24.445C41.7316 23.3879 40.9718 22.6281 39.8822 22.6281C38.7921 22.6281 38.0329 23.3879 38.0329 24.445V44.1941C38.0329 45.2842 38.7921 46.0768 39.8822 46.0768C40.9718 46.0768 41.7316 45.2842 41.7316 44.1941V24.445ZM48.0727 43.7323C49.7897 45.4164 51.9365 46.2421 54.5126 46.2421C57.0887 46.2421 59.235 45.3835 60.9856 43.666C62.736 41.9485 63.628 39.8346 63.628 37.3578C63.628 34.8807 62.7694 32.8002 61.0519 31.149C59.3678 29.4648 57.221 28.6393 54.6449 28.6393C52.0688 28.6393 49.889 29.4979 48.1385 31.2154C46.3881 32.8995 45.5295 35.0133 45.5295 37.4901C45.5295 39.9668 46.3881 42.0473 48.0727 43.7323ZM49.1623 37.4242C49.1623 35.8719 49.6909 34.5836 50.7146 33.5599C51.7383 32.5031 53.0262 31.9746 54.5785 31.9746C56.1308 31.9746 57.419 32.5031 58.4429 33.5599C59.4666 34.5836 59.9948 35.8719 59.9948 37.4242C59.9948 38.9765 59.4666 40.2973 58.4429 41.354C57.419 42.3781 56.1308 42.9063 54.5785 42.9063C53.0262 42.9063 51.7383 42.3781 50.7146 41.354C49.6909 40.2973 49.1623 38.9765 49.1623 37.4242ZM64.784 30.6204C64.784 30.9509 64.8498 31.2812 65.0151 31.5782L70.4313 44.1612C70.9598 45.4494 71.7855 46.0768 72.8755 46.0768C73.9981 46.0768 74.8238 45.4494 75.3523 44.1612L80.8344 31.4135C80.9667 31.116 81.0326 30.819 81.0326 30.5216C81.0326 29.5637 80.2729 28.8045 79.3151 28.8045C78.4565 28.8045 77.8621 29.2663 77.5321 30.1581L72.9744 41.321L68.4167 30.2241C68.0534 29.2663 67.4589 28.8045 66.6333 28.8045C65.5432 28.8045 64.784 29.5308 64.784 30.6204ZM91.2377 28.6393C88.695 28.6393 86.5482 29.4979 84.7976 31.2154C83.0472 32.8995 82.1886 35.0133 82.1886 37.4901C82.1886 39.9668 83.0472 42.0473 84.7318 43.7323C86.4488 45.4164 88.5956 46.2421 91.1717 46.2421C93.8467 46.2421 96.0268 45.3501 97.711 43.5337C98.2061 43.0715 98.4706 42.6088 98.4706 42.1136C98.4706 41.2881 97.8762 40.6606 96.9842 40.6606C96.6539 40.6606 96.2909 40.7925 95.9276 41.0899C95.1019 41.8825 94.7056 42.213 93.4178 42.7082C92.7899 42.9393 92.1295 43.0715 91.4028 43.0715C88.3645 43.0715 86.0529 41.0241 85.8873 37.9853H97.9091C98.9328 37.9853 99.4944 37.3578 99.4944 36.3012C99.4944 34.2866 98.6688 32.536 97.0501 30.9838C95.4319 29.4314 93.4837 28.6393 91.2377 28.6393ZM85.9207 35.6737C86.4159 33.164 88.5293 31.3801 91.1717 31.3801C92.3606 31.3801 93.4178 31.8098 94.3423 32.635C95.2672 33.461 95.8287 34.4518 96.0269 35.6737H85.9207ZM28.8719 24.5438C28.8719 23.4537 28.0793 22.6281 26.9232 22.6281C25.7672 22.6281 24.9417 23.4537 24.9417 24.5438V44.1282C24.9417 45.2843 25.7672 46.0768 26.9232 46.0768C28.0793 46.0768 28.8719 45.2843 28.8719 44.1282V24.5438ZM32.2406 63.2667C29.6641 63.2667 27.4848 64.1252 25.7343 65.8427C23.9839 67.5268 23.1253 69.6407 23.1253 72.118C23.1253 74.5942 23.9839 76.6751 25.6684 78.3597C27.3855 80.0438 29.5323 80.8695 32.1079 80.8695C34.354 80.8695 36.2693 80.1761 37.8216 78.8219C38.3172 78.3926 38.5813 77.9304 38.5813 77.3689C38.5813 76.4111 37.9209 75.7178 36.9631 75.7178C36.6656 75.7178 36.3027 75.8496 35.8729 76.1466C34.8163 77.0715 33.5948 77.5342 32.1743 77.5342C30.6219 77.5342 29.3341 77.0056 28.3104 75.9818C27.2867 74.9252 26.7581 73.6039 26.7581 72.0515C26.7581 70.4993 27.2867 69.2114 28.3104 68.1872C29.3341 67.1305 30.6219 66.6024 32.1743 66.6024C33.4621 66.6024 34.6181 66.9988 35.6752 67.8238C36.1045 68.1214 36.4674 68.2536 36.7983 68.2536C37.7556 68.2536 38.4824 67.5268 38.4824 66.569C38.4824 65.9415 38.152 65.4134 37.5245 64.9837C36.0711 63.8281 34.3211 63.2667 32.2406 63.2667ZM42.7756 78.3597C44.4927 80.0438 46.6394 80.8695 49.2155 80.8695C51.7916 80.8695 53.9384 80.0109 55.6889 78.2934C57.4394 76.5763 58.3309 74.4625 58.3309 71.9852C58.3309 69.5085 57.4723 67.4276 55.7548 65.7764C54.0707 64.0923 51.9239 63.2667 49.3478 63.2667C46.7718 63.2667 44.592 64.1252 42.8415 65.8427C41.091 67.5268 40.2325 69.6407 40.2325 72.118C40.2325 74.5942 41.091 76.6751 42.7756 78.3597ZM43.8657 72.0515C43.8657 70.4993 44.3939 69.2114 45.4176 68.1872C46.4413 67.1305 47.7296 66.6024 49.2815 66.6024C50.8338 66.6024 52.1221 67.1305 53.1458 68.1872C54.1695 69.2114 54.6977 70.4993 54.6977 72.0515C54.6977 73.6039 54.1695 74.9252 53.1458 75.9818C52.1221 77.0056 50.8338 77.5342 49.2815 77.5342C47.7296 77.5342 46.4413 77.0056 45.4176 75.9818C44.3939 74.9252 43.8657 73.6039 43.8657 72.0515ZM61.1385 64.5879C59.1899 64.3897 59.1899 67.6921 61.1385 67.4939H63.1196V78.8883C63.1196 79.9446 63.8794 80.7042 64.9361 80.7042C66.0262 80.7042 66.7529 79.9446 66.7529 78.8883V67.4939H71.2442C73.1599 67.6262 73.1599 64.4556 71.2442 64.5879H66.7529V63.2667C66.7529 61.1862 67.8426 60.096 69.8237 60.096C70.4516 60.096 71.3761 60.3272 71.5412 60.3272C72.3673 60.3272 72.9948 59.7327 72.9948 58.9071C72.9948 58.2134 72.5321 57.7512 71.6406 57.4541C70.8809 57.223 69.9565 57.0908 68.8993 57.0908C65.2995 57.0908 63.1196 59.2376 63.1196 63.0355V64.5879H61.1385ZM74.844 78.8883C74.844 79.9446 75.6038 80.7042 76.6604 80.7042C77.7501 80.7042 78.4769 79.9446 78.4769 78.8883V67.4939H82.9686C84.8509 67.6262 84.8509 64.4556 82.9686 64.5879H78.4769V63.597C78.4769 61.318 79.5999 60.096 81.5481 60.096C82.176 60.096 83.1005 60.3272 83.2656 60.3272C84.0912 60.3272 84.719 59.7327 84.719 58.9071C84.719 58.2134 84.2565 57.7512 83.365 57.4541C82.6052 57.223 81.7463 57.0908 80.7884 57.0908C77.0568 57.0908 74.844 59.3364 74.844 63.5307V78.8883ZM95.32 63.2667C92.7773 63.2667 90.6305 64.1252 88.88 65.8427C87.1295 67.5268 86.271 69.6407 86.271 72.118C86.271 74.5942 87.1295 76.6751 88.8141 78.3597C90.5311 80.0438 92.6779 80.8695 95.254 80.8695C97.929 80.8695 100.109 79.978 101.793 78.1615C102.288 77.699 102.553 77.2367 102.553 76.741C102.553 75.9155 101.959 75.288 101.067 75.288C100.736 75.288 100.373 75.4203 100.01 75.7178C99.1843 76.5099 98.7879 76.8404 97.5002 77.336C96.8723 77.5671 96.2119 77.699 95.4851 77.699C92.4468 77.699 90.1354 75.6514 89.9697 72.6131H101.991C103.015 72.6131 103.577 71.9852 103.577 70.9286C103.577 68.9144 102.751 67.164 101.133 65.6116C99.5148 64.0593 97.5661 63.2667 95.32 63.2667ZM90.0031 70.3011C90.4982 67.7914 92.6121 66.008 95.254 66.008C96.443 66.008 97.5002 66.4372 98.4246 67.2628C99.3495 68.0884 99.911 69.0792 100.109 70.3011H90.0031ZM115.202 63.2667C112.659 63.2667 110.512 64.1252 108.762 65.8427C107.011 67.5268 106.153 69.6407 106.153 72.118C106.153 74.5942 107.011 76.6751 108.696 78.3597C110.413 80.0438 112.56 80.8695 115.136 80.8695C117.811 80.8695 119.991 79.978 121.675 78.1615C122.171 77.699 122.435 77.2367 122.435 76.741C122.435 75.9155 121.84 75.288 120.948 75.288C120.618 75.288 120.255 75.4203 119.892 75.7178C119.066 76.5099 118.67 76.8404 117.382 77.336C116.755 77.5671 116.094 77.699 115.367 77.699C112.329 77.699 110.017 75.6514 109.852 72.6131H121.874C122.898 72.6131 123.458 71.9852 123.458 70.9286C123.458 68.9144 122.633 67.164 121.014 65.6116C119.396 64.0593 117.448 63.2667 115.202 63.2667ZM109.885 70.3011C110.38 67.7914 112.494 66.008 115.136 66.008C116.325 66.008 117.382 66.4372 118.307 67.2628C119.231 68.0884 119.793 69.0792 119.991 70.3011H109.885ZM152.623 2.97012H3.22761V100.384H152.623V2.97012Z" fill="black"/>
</svg>
