<svg width="100" height="100" viewBox="0 0 100 100" fill="none" xmlns="http://www.w3.org/2000/svg">
<rect width="100" height="100" fill="white"/>
<path d="M95 30C97.7612 30 100 27.7612 100 25V5C100 2.23877 97.7612 0 95 0H5C2.23877 0 0 2.23877 0 5V25C0 27.7612 2.23877 30 5 30H8.33333V58.667L4.66634 65C4.20654 65.7967 4.47835 66.8156 5.27506 67.277L8.33333 69.0381V86.6667H5C2.23877 86.6667 0 88.9054 0 91.6667V95C0 97.7612 2.23877 100 5 100H95C97.7612 100 100 97.7612 100 95V91.6667C100 88.9054 97.7612 86.6667 95 86.6667H91.6667V47.4569L94.3335 47.8133C94.554 47.8418 94.777 47.8564 95 47.8564C97.7612 47.8564 100 45.6185 100 42.8564V38.8102C100 37.3673 99.3774 35.9953 98.2918 35.0456C97.2062 34.0959 95.7633 33.6613 94.3335 33.8534L91.6667 34.2098V30H95ZM3.33333 25V5C3.33333 4.07959 4.07959 3.33333 5 3.33333H95C95.9204 3.33333 96.6667 4.07959 96.6667 5V25C96.6667 25.9204 95.9204 26.6667 95 26.6667H5C4.07959 26.6667 3.33333 25.9204 3.33333 25ZM71.6667 41.6667H65V40H71.6667V41.6667ZM61.6667 45C61.6667 47.7612 59.4279 50 56.6667 50H43.3333C40.5721 50 38.3333 47.7612 38.3333 45V36.6667H61.6667V45ZM48.3333 53.3333H51.6667V56.6667H48.3333V53.3333ZM58.3333 33.3333H41.6667V30H58.3333V33.3333ZM8.39355 65.2271L14.2269 55.1253L18.5604 57.6253L12.7271 67.723L8.39355 65.2271ZM18.8664 53.9567L18.3667 53.6686L17.8516 53.37L23.1136 44.1667C23.2593 43.9136 23.335 43.6255 23.3333 43.3333V30H25V42.902L18.8664 53.9567ZM11.6667 30H20V42.8898L14.965 51.7049L14.4482 51.4071C14.0649 51.1841 13.6092 51.123 13.1812 51.2378C12.7523 51.3525 12.3877 51.6325 12.1663 52.0166L11.6667 52.8931V30ZM96.6667 91.6667V95C96.6667 95.9204 95.9204 96.6667 95 96.6667H5C4.07959 96.6667 3.33333 95.9204 3.33333 95V91.6667C3.33333 90.7463 4.07959 90 5 90H95C95.9204 90 96.6667 90.7463 96.6667 91.6667ZM66.6667 73.3333V71.6667C68.5075 71.6667 70 73.1592 70 75C70 76.8408 68.5075 78.3333 66.6667 78.3333H65.7918C66.3672 76.7293 66.6634 75.0374 66.6667 73.3333ZM63.3333 73.3333C63.326 79.7738 58.1071 84.9927 51.6667 85H48.3333C41.8929 84.9927 36.674 79.7738 36.6667 73.3333V68.3333H63.3333V73.3333ZM88.3333 86.6667H58.5002C60.7666 85.5013 62.701 83.7809 64.1235 81.6667H66.6667C70.3483 81.6667 73.3333 78.6816 73.3333 75C73.3333 71.3184 70.3483 68.3333 66.6667 68.3333V66.6667C66.6667 65.7463 65.9204 65 65 65H35C34.0796 65 33.3333 65.7463 33.3333 66.6667V73.3333C33.3407 78.9575 36.4933 84.1048 41.4998 86.6667H11.6667V70.9635L12.5 71.4453C12.675 71.5397 12.8646 71.6032 13.0615 71.6317C13.1063 71.6398 13.1502 71.6447 13.195 71.6504C13.2397 71.6553 13.2869 71.6667 13.3333 71.6667C13.479 71.6658 13.6239 71.6471 13.7646 71.6097L13.7834 71.6016C13.9583 71.5495 14.1243 71.4689 14.2733 71.3631C14.3132 71.3346 14.3498 71.307 14.388 71.2752C14.5443 71.1523 14.6761 71.0026 14.7786 70.8333L22.2786 57.8499C22.7254 57.0907 22.4902 56.1141 21.7464 55.6413L28.1266 44.1414C28.2633 43.894 28.3341 43.6157 28.3333 43.3333V30H38.3333V33.3333H36.6667C35.7463 33.3333 35 34.0796 35 35V45C35.0057 49.6004 38.7329 53.3276 43.3333 53.3333H45V58.3333C45 59.2537 45.7463 60 46.6667 60H53.3333C54.2537 60 55 59.2537 55 58.3333V53.3333H56.6667C61.2671 53.3276 64.9943 49.6004 65 45H73.2235L88.3333 47.0133V86.6667ZM94.7803 37.1663C95.2547 37.1037 95.7332 37.2477 96.0946 37.5618C96.4559 37.8768 96.6642 38.3309 96.6667 38.8102V42.8564C96.6691 43.3382 96.4608 43.7964 96.097 44.1113C95.7349 44.4279 95.2547 44.5719 94.7786 44.5085L90.2352 43.903H90.2197L75 41.8734V39.7933L90.2197 37.7686H90.2352L94.7803 37.1663ZM88.3333 34.6533L73.2235 36.6667H65V35C65 34.0796 64.2537 33.3333 63.3333 33.3333H61.6667V30H88.3333V34.6533Z" fill="url(#paint0_linear_61_595)"/>
<path d="M50 25C55.5225 25 60 20.5225 60 15C60 9.47754 55.5225 5 50 5C44.4775 5 40 9.47754 40 15C40.0057 20.5208 44.4792 24.9943 50 25ZM50 21.6667C47.6294 21.6593 45.4419 20.389 44.2603 18.3333H55.7397C54.5581 20.389 52.3706 21.6593 50 21.6667ZM50 8.33333C53.6816 8.33333 56.6667 11.3184 56.6667 15H51.202L49.9154 11.1401C49.624 10.2653 48.6792 9.79248 47.8052 10.083C46.9303 10.3743 46.4575 11.3192 46.748 12.1932L47.6864 15H43.3333C43.3333 11.3184 46.3184 8.33333 50 8.33333Z" fill="url(#paint1_linear_61_595)"/>
<path d="M14.9997 21.6667C18.6813 21.6667 21.6663 18.6817 21.6663 15C21.6663 11.3184 18.6813 8.33337 14.9997 8.33337C11.318 8.33337 8.33301 11.3184 8.33301 15C8.33301 18.6817 11.318 21.6667 14.9997 21.6667ZM14.9997 11.6667C16.8405 11.6667 18.333 13.1592 18.333 15C18.333 16.8409 16.8405 18.3334 14.9997 18.3334C13.1589 18.3334 11.6663 16.8409 11.6663 15C11.6663 13.1592 13.1589 11.6667 14.9997 11.6667Z" fill="url(#paint2_linear_61_595)"/>
<path d="M26.6667 13.3333H30C30.9204 13.3333 31.6667 12.5871 31.6667 11.6667C31.6667 10.7463 30.9204 10 30 10H26.6667C25.7463 10 25 10.7463 25 11.6667C25 12.5871 25.7463 13.3333 26.6667 13.3333Z" fill="url(#paint3_linear_61_595)"/>
<path d="M26.6667 20H30C30.9204 20 31.6667 19.2537 31.6667 18.3333C31.6667 17.4129 30.9204 16.6666 30 16.6666H26.6667C25.7463 16.6666 25 17.4129 25 18.3333C25 19.2537 25.7463 20 26.6667 20Z" fill="url(#paint4_linear_61_595)"/>
<path d="M69.9997 21.6667H89.9997C90.9201 21.6667 91.6663 20.9205 91.6663 20V10C91.6663 9.07963 90.9201 8.33337 89.9997 8.33337H69.9997C69.0793 8.33337 68.333 9.07963 68.333 10V20C68.333 20.9205 69.0793 21.6667 69.9997 21.6667ZM71.6663 11.6667H88.333V18.3334H71.6663V11.6667Z" fill="url(#paint5_linear_61_595)"/>
<path d="M81.667 91.6666H18.3337C17.4132 91.6666 16.667 92.4129 16.667 93.3333C16.667 94.2537 17.4132 95 18.3337 95H81.667C82.5874 95 83.3337 94.2537 83.3337 93.3333C83.3337 92.4129 82.5874 91.6666 81.667 91.6666Z" fill="url(#paint6_linear_61_595)"/>
<path d="M86.667 93.3333C86.667 94.2537 87.4132 95 88.3337 95H91.667C92.5874 95 93.3337 94.2537 93.3337 93.3333C93.3337 92.4129 92.5874 91.6666 91.667 91.6666H88.3337C87.4132 91.6666 86.667 92.4129 86.667 93.3333Z" fill="url(#paint7_linear_61_595)"/>
<path d="M11.667 91.6666H8.33366C7.41325 91.6666 6.66699 92.4129 6.66699 93.3333C6.66699 94.2537 7.41325 95 8.33366 95H11.667C12.5874 95 13.3337 94.2537 13.3337 93.3333C13.3337 92.4129 12.5874 91.6666 11.667 91.6666Z" fill="url(#paint8_linear_61_595)"/>
<defs>
<linearGradient id="paint0_linear_61_595" x1="4.97755e-06" y1="7.34798" x2="94.8418" y2="95.335" gradientUnits="userSpaceOnUse">
<stop stop-color="#09D24B"/>
<stop offset="1" stop-color="#57D20A"/>
</linearGradient>
<linearGradient id="paint1_linear_61_595" x1="40" y1="6.4696" x2="58.9684" y2="24.067" gradientUnits="userSpaceOnUse">
<stop stop-color="#09D24B"/>
<stop offset="1" stop-color="#57D20A"/>
</linearGradient>
<linearGradient id="paint2_linear_61_595" x1="8.33301" y1="9.3131" x2="20.9786" y2="21.0447" gradientUnits="userSpaceOnUse">
<stop stop-color="#09D24B"/>
<stop offset="1" stop-color="#57D20A"/>
</linearGradient>
<linearGradient id="paint3_linear_61_595" x1="25" y1="10.2449" x2="27.6481" y2="15.1583" gradientUnits="userSpaceOnUse">
<stop stop-color="#09D24B"/>
<stop offset="1" stop-color="#57D20A"/>
</linearGradient>
<linearGradient id="paint4_linear_61_595" x1="25" y1="16.9116" x2="27.6481" y2="21.8249" gradientUnits="userSpaceOnUse">
<stop stop-color="#09D24B"/>
<stop offset="1" stop-color="#57D20A"/>
</linearGradient>
<linearGradient id="paint5_linear_61_595" x1="68.333" y1="9.3131" x2="79.6582" y2="27.6997" gradientUnits="userSpaceOnUse">
<stop stop-color="#09D24B"/>
<stop offset="1" stop-color="#57D20A"/>
</linearGradient>
<linearGradient id="paint6_linear_61_595" x1="16.667" y1="91.9116" x2="17.0077" y2="98.2338" gradientUnits="userSpaceOnUse">
<stop stop-color="#09D24B"/>
<stop offset="1" stop-color="#57D20A"/>
</linearGradient>
<linearGradient id="paint7_linear_61_595" x1="86.667" y1="91.9116" x2="89.3151" y2="96.8249" gradientUnits="userSpaceOnUse">
<stop stop-color="#09D24B"/>
<stop offset="1" stop-color="#57D20A"/>
</linearGradient>
<linearGradient id="paint8_linear_61_595" x1="6.66699" y1="91.9116" x2="9.31508" y2="96.8249" gradientUnits="userSpaceOnUse">
<stop stop-color="#09D24B"/>
<stop offset="1" stop-color="#57D20A"/>
</linearGradient>
</defs>
</svg>
