<svg width="100" height="100" viewBox="0 0 100 100" fill="none" xmlns="http://www.w3.org/2000/svg">
<rect width="100" height="100" fill="white"/>
<path d="M13.0547 9.17969C13.0547 11.6028 15.0261 13.5742 17.4492 13.5742C19.8723 13.5742 21.8438 11.6028 21.8438 9.17969C21.8438 6.75659 19.8723 4.78516 17.4492 4.78516C15.0261 4.78516 13.0547 6.75659 13.0547 9.17969ZM18.9141 9.17969C18.9141 9.98764 18.2572 10.6445 17.4492 10.6445C16.6413 10.6445 15.9844 9.98764 15.9844 9.17969C15.9844 8.37173 16.6413 7.71484 17.4492 7.71484C18.2572 7.71484 18.9141 8.37173 18.9141 9.17969Z" fill="url(#paint0_linear_61_609)"/>
<path d="M24.7734 9.17969C24.7734 11.6028 26.7449 13.5742 29.168 13.5742C31.5911 13.5742 33.5625 11.6028 33.5625 9.17969C33.5625 6.75659 31.5911 4.78516 29.168 4.78516C26.7449 4.78516 24.7734 6.75659 24.7734 9.17969ZM30.6328 9.17969C30.6328 9.98764 29.9759 10.6445 29.168 10.6445C28.36 10.6445 27.7031 9.98764 27.7031 9.17969C27.7031 8.37173 28.36 7.71484 29.168 7.71484C29.9759 7.71484 30.6328 8.37173 30.6328 9.17969Z" fill="url(#paint1_linear_61_609)"/>
<path d="M36.4922 9.17969C36.4922 11.6028 38.4636 13.5742 40.8867 13.5742C43.3098 13.5742 45.2812 11.6028 45.2812 9.17969C45.2812 6.75659 43.3098 4.78516 40.8867 4.78516C38.4636 4.78516 36.4922 6.75659 36.4922 9.17969ZM42.3516 9.17969C42.3516 9.98764 41.6947 10.6445 40.8867 10.6445C40.0788 10.6445 39.4219 9.98764 39.4219 9.17969C39.4219 8.37173 40.0788 7.71484 40.8867 7.71484C41.6947 7.71484 42.3516 8.37173 42.3516 9.17969Z" fill="url(#paint2_linear_61_609)"/>
<path d="M27.7935 29.5088L16.3486 29.5096C15.5399 29.5096 14.8838 30.1649 14.8838 30.9744C14.8838 31.7831 15.5399 32.4392 16.3486 32.4392L27.7943 32.4385C28.603 32.4385 29.2591 31.7823 29.2591 30.9729C29.2591 30.1642 28.603 29.5088 27.7935 29.5088Z" fill="url(#paint3_linear_61_609)"/>
<path d="M39.7861 35.3354L16.3486 35.3362C15.5399 35.3362 14.8838 35.9923 14.8838 36.8011C14.8838 37.6105 15.5399 38.2659 16.3486 38.2659L39.7861 38.2651C40.5956 38.2651 41.251 37.609 41.251 36.8003C41.251 35.9908 40.5956 35.3354 39.7861 35.3354Z" fill="url(#paint4_linear_61_609)"/>
<path d="M16.3486 44.0926L39.7854 44.0918C40.5948 44.0918 41.2502 43.4364 41.2502 42.627C41.2502 41.8182 40.5948 41.1621 39.7854 41.1621L16.3486 41.1629C15.5392 41.1629 14.8838 41.819 14.8838 42.6277C14.8838 43.4372 15.5399 44.0926 16.3486 44.0926Z" fill="url(#paint5_linear_61_609)"/>
<path d="M16.3486 50.0794L39.7854 50.0786C40.5948 50.0786 41.2502 49.4225 41.2502 48.6138C41.2502 47.8043 40.5948 47.1489 39.7854 47.1489L16.3486 47.1497C15.5392 47.1497 14.8838 47.8051 14.8838 48.6145C14.8838 49.4232 15.5399 50.0794 16.3486 50.0794Z" fill="url(#paint6_linear_61_609)"/>
<path d="M16.3486 55.7122L39.7854 55.7114C40.5948 55.7114 41.2502 55.0553 41.2502 54.2466C41.2502 53.4371 40.5948 52.7817 39.7854 52.7817L16.3486 52.7825C15.5392 52.7825 14.8838 53.4379 14.8838 54.2473C14.8838 55.0561 15.5399 55.7122 16.3486 55.7122Z" fill="url(#paint7_linear_61_609)"/>
<path d="M16.3486 61.3448L29.6558 61.3433C30.4653 61.3433 31.1207 60.6879 31.1207 59.8784C31.1207 59.0697 30.4645 58.4136 29.6558 58.4136L16.3486 58.4151C15.5392 58.4151 14.8838 59.0705 14.8838 59.8799C14.8838 60.6887 15.5399 61.3448 16.3486 61.3448Z" fill="url(#paint8_linear_61_609)"/>
<path d="M16.3486 83.4244L45.7691 83.4229C46.5786 83.4229 47.2339 82.7675 47.2339 81.958C47.2339 81.1493 46.5778 80.4932 45.7691 80.4932L16.3486 80.4947C15.5392 80.4947 14.8838 81.1501 14.8838 81.9595C14.8838 82.7682 15.5399 83.4244 16.3486 83.4244Z" fill="url(#paint9_linear_61_609)"/>
<path d="M91.4177 50.2487C92.3134 49.144 93.3281 47.8912 93.3281 46.2753C93.3281 44.6594 92.3134 43.4067 91.4177 42.3012C90.9096 41.674 90.3847 41.0255 90.2527 40.5312C90.1085 39.9925 90.2413 39.138 90.3702 38.3125C90.5846 36.9324 90.8287 35.3676 90.0467 34.0157C89.254 32.6462 87.764 32.0732 86.4502 31.5681C85.6804 31.2721 84.8847 30.9662 84.5047 30.587C84.1255 30.2071 83.8196 29.4113 83.5236 28.6415C83.0185 27.327 82.4456 25.8377 81.0761 25.045C81.0585 25.0351 81.041 25.0275 81.0234 25.0175V1.46484C81.0234 0.655365 80.3681 0 79.5586 0H8.46484C7.65537 0 7 0.655365 7 1.46484V87.5C7 88.3095 7.65537 88.9648 8.46484 88.9648C9.27432 88.9648 9.92969 88.3095 9.92969 87.5V18.5547H68.8164C69.6259 18.5547 70.2812 17.8993 70.2812 17.0898C70.2812 16.2804 69.6259 15.625 68.8164 15.625H9.92969V2.92969H78.0938V15.625H75.0992C74.2897 15.625 73.6344 16.2804 73.6344 17.0898C73.6344 17.8993 74.2897 18.5547 75.0992 18.5547H78.0938V24.5461C77.6459 24.5872 77.2034 24.6559 76.7784 24.7215C75.9529 24.8505 75.0992 24.9832 74.5606 24.839C74.0662 24.707 73.4177 24.1821 72.7906 23.674C71.6851 22.7783 70.4323 21.7636 68.8164 21.7636C67.2005 21.7636 65.9478 22.7783 64.8423 23.674C64.2151 24.1821 63.5666 24.707 63.0722 24.839C62.5344 24.9832 61.6799 24.8505 60.8544 24.7215C59.4734 24.5064 57.9087 24.263 56.5567 25.045C55.1873 25.8377 54.6143 27.327 54.1092 28.6415C53.8132 29.4113 53.5073 30.2071 53.1281 30.587C52.7481 30.9662 51.9524 31.2721 51.1833 31.5681C49.8688 32.0732 48.3788 32.6462 47.5869 34.0157C46.8048 35.3668 47.0482 36.9324 47.2634 38.3125C47.3915 39.1388 47.5243 39.9925 47.3801 40.5312C47.2481 41.0255 46.7232 41.674 46.2151 42.3012C45.3194 43.4067 44.3047 44.6594 44.3047 46.2753C44.3047 47.8905 45.3194 49.144 46.2151 50.2487C46.7232 50.8766 47.2481 51.5251 47.3801 52.0187C47.5243 52.5581 47.3915 53.4119 47.2634 54.2374C47.0482 55.6183 46.8048 57.1831 47.5869 58.535C48.3788 59.9045 49.8688 60.4767 51.1833 60.9818C51.9524 61.2778 52.7481 61.5837 53.1281 61.9637C53.5073 62.3428 53.814 63.1393 54.1092 63.9084C54.6143 65.2229 55.1873 66.7122 56.5567 67.5049C56.5743 67.5148 56.5918 67.5232 56.6094 67.5331V93.9301C56.6094 94.4588 56.8947 94.9463 57.3555 95.2057C57.8156 95.4651 58.3809 95.4567 58.8333 95.1828L68.8164 89.1327L78.0938 94.7548V97.0703H9.92969V93.7012C9.92969 92.8917 9.27432 92.2363 8.46484 92.2363C7.65537 92.2363 7 92.8917 7 93.7012V98.5352C7 99.3446 7.65537 100 8.46484 100H79.5586C80.3681 100 81.0234 99.3446 81.0234 98.5352V67.5331C81.041 67.5232 81.0585 67.5156 81.0761 67.5056C82.4456 66.713 83.0185 65.2229 83.5236 63.9091C83.8196 63.1393 84.1255 62.3436 84.5047 61.9637C84.8847 61.5845 85.6804 61.2778 86.4495 60.9825C87.764 60.4774 89.254 59.9045 90.046 58.535C90.828 57.1831 90.5846 55.6183 90.3694 54.2374C90.2413 53.4119 90.1085 52.5581 90.2527 52.0195C90.3847 51.5251 90.9096 50.8766 91.4177 50.2487ZM59.5391 68.0046C59.9869 67.9634 60.4294 67.8947 60.8544 67.8284C61.4159 67.7414 61.9889 67.6544 62.4688 67.6514V89.5538L59.5391 91.3292V68.0046ZM68.0573 86.1671L65.3984 87.7785V69.3207C66.3681 70.0775 67.4652 70.787 68.8164 70.787C70.1676 70.787 71.2647 70.0775 72.2344 69.3207V87.7785L69.5755 86.1671C69.1086 85.8849 68.5242 85.8849 68.0573 86.1671ZM78.0938 91.3292L75.1641 89.5538V67.6514C75.644 67.6537 76.2169 67.7414 76.7784 67.8284C77.2034 67.8947 77.6459 67.9634 78.0938 68.0046V91.3292ZM89.1411 48.4055C88.44 49.2706 87.7152 50.1656 87.4222 51.2627C87.1186 52.3979 87.3078 53.6148 87.4749 54.6883C87.6152 55.5893 87.7739 56.6116 87.5099 57.0679C87.2361 57.5417 86.3022 57.9002 85.3981 58.2481C84.3438 58.6533 83.2527 59.0729 82.4333 59.8923C81.6132 60.7117 81.1936 61.8027 80.7885 62.8578C80.4413 63.7611 80.082 64.695 79.6082 64.9696C79.525 65.0177 79.4228 65.0513 79.3061 65.0742C79.29 65.0772 79.2733 65.0787 79.2572 65.0826C78.7331 65.168 77.9435 65.0452 77.2293 64.9345C76.1559 64.7675 74.939 64.5775 73.8037 64.8811C73.5794 64.9406 73.3658 65.0223 73.1575 65.1146C73.1369 65.123 73.1171 65.1314 73.0965 65.1405C72.3091 65.4999 71.6179 66.0561 70.9458 66.6008C70.1828 67.2188 69.3947 67.8581 68.8164 67.8581C68.2381 67.8581 67.4492 67.2188 66.6863 66.6008C66.0141 66.0561 65.3229 65.4999 64.534 65.1398C64.515 65.1314 64.4959 65.123 64.4768 65.1154C64.2678 65.023 64.0534 64.9414 63.8291 64.8811C63.3911 64.7644 62.941 64.7202 62.4916 64.7202C61.776 64.7202 61.0627 64.8315 60.4035 64.9345C59.6886 65.0452 58.899 65.168 58.3748 65.0826C58.3596 65.0787 58.3428 65.0772 58.3268 65.0742C58.21 65.052 58.1078 65.0177 58.0239 64.9696C57.5501 64.6957 57.1915 63.7619 56.8444 62.8586C56.4385 61.8034 56.0189 60.7117 55.1995 59.8923C54.3801 59.0729 53.2891 58.6533 52.2339 58.2481C51.3306 57.9002 50.396 57.5417 50.1221 57.0679C49.8581 56.6116 50.0168 55.5901 50.158 54.6883C50.3243 53.6148 50.5143 52.3987 50.2106 51.2627C49.9176 50.1663 49.1921 49.2706 48.4909 48.4055C47.873 47.6425 47.2336 46.8536 47.2336 46.2753C47.2336 45.6978 47.873 44.9089 48.4909 44.146C49.1921 43.28 49.9176 42.3851 50.2106 41.288C50.5143 40.1527 50.3243 38.9359 50.158 37.8624C50.0176 36.9614 49.8581 35.9398 50.1221 35.4836C50.396 35.009 51.3306 34.6504 52.2339 34.3033C53.2891 33.8974 54.3801 33.4778 55.1995 32.6591C56.0189 31.839 56.4385 30.748 56.8436 29.6928C57.1915 28.7895 57.5501 27.8557 58.0239 27.581C58.4801 27.3178 59.5024 27.4765 60.4035 27.6169C61.4769 27.784 62.6931 27.9724 63.8291 27.6695C64.9254 27.3766 65.8211 26.651 66.687 25.9499C67.4492 25.3319 68.2381 24.6933 68.8164 24.6933C69.3947 24.6933 70.1836 25.3319 70.9458 25.9499C71.8117 26.651 72.7074 27.3766 73.8037 27.6695C74.939 27.9732 76.1559 27.784 77.2293 27.6169C78.1304 27.4765 79.1527 27.317 79.6089 27.581C80.0827 27.8549 80.4413 28.7895 80.7885 29.6928C81.1943 30.748 81.614 31.839 82.4333 32.6591C83.2527 33.4785 84.3438 33.8974 85.3989 34.3033C86.3022 34.6504 87.2368 35.0098 87.5107 35.4836C87.7747 35.939 87.616 36.9606 87.4749 37.8624C87.3085 38.9359 87.1186 40.1527 87.4222 41.288C87.7152 42.3851 88.4407 43.28 89.1419 44.146C89.7599 44.9089 90.3992 45.6978 90.3992 46.2753C90.3992 46.8536 89.7599 47.6425 89.1411 48.4055Z" fill="url(#paint10_linear_61_609)"/>
<path d="M68.8164 29.5762C59.6085 29.5762 52.1172 37.0675 52.1172 46.2754C52.1172 55.4833 59.6085 62.9746 68.8164 62.9746C70.6734 62.9746 72.4984 62.6717 74.2401 62.0736C75.0054 61.8111 75.4128 60.978 75.1503 60.2128C74.8871 59.4475 74.054 59.0409 73.2888 59.3026C71.8537 59.7954 70.3492 60.0449 68.8164 60.0449C61.2244 60.0449 55.0469 53.8682 55.0469 46.2754C55.0469 38.6834 61.2244 32.5059 68.8164 32.5059C76.4092 32.5059 82.5859 38.6834 82.5859 46.2754C82.5859 50.1275 80.9555 53.83 78.1136 56.4332C77.517 56.9794 77.4758 57.9064 78.022 58.503C78.5691 59.0996 79.4953 59.1401 80.0919 58.5938C83.5388 55.4368 85.5156 50.9469 85.5156 46.2754C85.5156 37.0675 78.0243 29.5762 68.8164 29.5762Z" fill="url(#paint11_linear_61_609)"/>
<defs>
<linearGradient id="paint0_linear_61_609" x1="13.0547" y1="5.43097" x2="21.3904" y2="13.1642" gradientUnits="userSpaceOnUse">
<stop stop-color="#09D24B"/>
<stop offset="1" stop-color="#57D20A"/>
</linearGradient>
<linearGradient id="paint1_linear_61_609" x1="24.7734" y1="5.43097" x2="33.1091" y2="13.1642" gradientUnits="userSpaceOnUse">
<stop stop-color="#09D24B"/>
<stop offset="1" stop-color="#57D20A"/>
</linearGradient>
<linearGradient id="paint2_linear_61_609" x1="36.4922" y1="5.43097" x2="44.8279" y2="13.1642" gradientUnits="userSpaceOnUse">
<stop stop-color="#09D24B"/>
<stop offset="1" stop-color="#57D20A"/>
</linearGradient>
<linearGradient id="paint3_linear_61_609" x1="14.8838" y1="29.7241" x2="16.0522" y2="35.0416" gradientUnits="userSpaceOnUse">
<stop stop-color="#09D24B"/>
<stop offset="1" stop-color="#57D20A"/>
</linearGradient>
<linearGradient id="paint4_linear_61_609" x1="14.8838" y1="35.5508" x2="15.5421" y2="41.0461" gradientUnits="userSpaceOnUse">
<stop stop-color="#09D24B"/>
<stop offset="1" stop-color="#57D20A"/>
</linearGradient>
<linearGradient id="paint5_linear_61_609" x1="14.8838" y1="41.3774" x2="15.5421" y2="46.8728" gradientUnits="userSpaceOnUse">
<stop stop-color="#09D24B"/>
<stop offset="1" stop-color="#57D20A"/>
</linearGradient>
<linearGradient id="paint6_linear_61_609" x1="14.8838" y1="47.3643" x2="15.5421" y2="52.8596" gradientUnits="userSpaceOnUse">
<stop stop-color="#09D24B"/>
<stop offset="1" stop-color="#57D20A"/>
</linearGradient>
<linearGradient id="paint7_linear_61_609" x1="14.8838" y1="52.9971" x2="15.5421" y2="58.4924" gradientUnits="userSpaceOnUse">
<stop stop-color="#09D24B"/>
<stop offset="1" stop-color="#57D20A"/>
</linearGradient>
<linearGradient id="paint8_linear_61_609" x1="14.8838" y1="58.629" x2="15.9292" y2="64.0012" gradientUnits="userSpaceOnUse">
<stop stop-color="#09D24B"/>
<stop offset="1" stop-color="#57D20A"/>
</linearGradient>
<linearGradient id="paint9_linear_61_609" x1="14.8838" y1="80.7085" x2="15.4232" y2="86.2315" gradientUnits="userSpaceOnUse">
<stop stop-color="#09D24B"/>
<stop offset="1" stop-color="#57D20A"/>
</linearGradient>
<linearGradient id="paint10_linear_61_609" x1="7" y1="7.34798" x2="99.8116" y2="81.6796" gradientUnits="userSpaceOnUse">
<stop stop-color="#09D24B"/>
<stop offset="1" stop-color="#57D20A"/>
</linearGradient>
<linearGradient id="paint11_linear_61_609" x1="52.1172" y1="32.0303" x2="83.7929" y2="61.4166" gradientUnits="userSpaceOnUse">
<stop stop-color="#09D24B"/>
<stop offset="1" stop-color="#57D20A"/>
</linearGradient>
</defs>
</svg>
