<svg width="36" height="37" viewBox="0 0 36 37" fill="none" xmlns="http://www.w3.org/2000/svg">
<rect y="0.310547" width="36" height="36" rx="18" fill="#FF0000"/>
<path fill-rule="evenodd" clip-rule="evenodd" d="M25.0428 12.3855C25.8138 12.5931 26.4217 13.201 26.6292 13.972C27.0147 15.3805 26.9999 18.3163 26.9999 18.3163C26.9999 18.3163 26.9999 21.2372 26.6292 22.6458C26.4217 23.4168 25.8138 24.0247 25.0428 24.2322C23.6342 24.6029 18 24.6029 18 24.6029C18 24.6029 12.3805 24.6029 10.9572 24.2174C10.1862 24.0098 9.57825 23.4019 9.37067 22.6309C9 21.2372 9 18.3015 9 18.3015C9 18.3015 9 15.3805 9.37067 13.972C9.57825 13.201 10.201 12.5783 10.9572 12.3707C12.3657 12 18 12 18 12C18 12 23.6342 12 25.0428 12.3855ZM20.8912 18.3014L16.2059 20.9999V15.6029L20.8912 18.3014Z" fill="white"/>
</svg>
