<svg width="36" height="37" viewBox="0 0 36 37" fill="none" xmlns="http://www.w3.org/2000/svg">
<rect y="0.310547" width="36" height="36" rx="18" fill="#BB2CAD"/>
<path d="M15.026 17.9609C15.026 16.5112 16.201 15.3357 17.6507 15.3357C19.1005 15.3357 20.276 16.5112 20.276 17.9609C20.276 19.4106 19.1005 20.5861 17.6507 20.5861C16.201 20.5861 15.026 19.4106 15.026 17.9609ZM13.6068 17.9609C13.6068 20.1943 15.4173 22.0047 17.6507 22.0047C19.8841 22.0047 21.6946 20.1943 21.6946 17.9609C21.6946 15.7276 19.8841 13.9172 17.6507 13.9172C15.4173 13.9172 13.6068 15.7276 13.6068 17.9609ZM20.9096 13.7569C20.9096 13.9438 20.9649 14.1265 21.0687 14.282C21.1725 14.4374 21.32 14.5586 21.4927 14.6302C21.6653 14.7018 21.8553 14.7206 22.0387 14.6842C22.222 14.6478 22.3904 14.5579 22.5226 14.4257C22.6549 14.2936 22.7449 14.1253 22.7815 13.942C22.818 13.7587 22.7994 13.5687 22.7279 13.396C22.6565 13.2233 22.5354 13.0756 22.38 12.9717C22.2247 12.8678 22.042 12.8123 21.8551 12.8123H21.8547C21.6041 12.8124 21.3639 12.9119 21.1867 13.089C21.0095 13.2662 20.9099 13.5064 20.9096 13.7569ZM14.4691 24.371C13.7013 24.336 13.2839 24.2081 13.0066 24.1001C12.6389 23.957 12.3766 23.7865 12.1008 23.511C11.8249 23.2356 11.6542 22.9735 11.5117 22.6059C11.4036 22.3287 11.2757 21.9112 11.2408 21.1434C11.2026 20.3134 11.195 20.064 11.195 17.961C11.195 15.858 11.2032 15.6093 11.2408 14.7786C11.2757 14.0108 11.4046 13.5942 11.5117 13.3161C11.6548 12.9485 11.8253 12.6861 12.1008 12.4103C12.3762 12.1345 12.6383 11.9638 13.0066 11.8213C13.2838 11.7132 13.7013 11.5853 14.4691 11.5504C15.2992 11.5122 15.5486 11.5046 17.6507 11.5046C19.7528 11.5046 20.0025 11.5128 20.8333 11.5504C21.6011 11.5853 22.0177 11.7142 22.2958 11.8213C22.6634 11.9638 22.9258 12.1349 23.2016 12.4103C23.4774 12.6858 23.6475 12.9485 23.7907 13.3161C23.8988 13.5933 24.0267 14.0108 24.0616 14.7786C24.0998 15.6093 24.1074 15.858 24.1074 17.961C24.1074 20.064 24.0998 20.3127 24.0616 21.1434C24.0266 21.9112 23.8981 22.3285 23.7907 22.6059C23.6475 22.9735 23.4771 23.2359 23.2016 23.511C22.9262 23.7862 22.6634 23.957 22.2958 24.1001C22.0185 24.2082 21.6011 24.3361 20.8333 24.371C20.0032 24.4092 19.7538 24.4168 17.6507 24.4168C15.5476 24.4168 15.2989 24.4092 14.4691 24.371ZM14.4039 10.1336C13.5655 10.1718 12.9926 10.3047 12.4923 10.4994C11.9742 10.7004 11.5356 10.9701 11.0972 11.4077C10.6589 11.8453 10.3899 12.2846 10.1889 12.8027C9.9942 13.3033 9.86126 13.8759 9.82308 14.7142C9.78427 15.5539 9.77539 15.8223 9.77539 17.9609C9.77539 20.0995 9.78427 20.368 9.82308 21.2076C9.86126 22.046 9.9942 22.6185 10.1889 23.1191C10.3899 23.6369 10.659 24.0767 11.0972 24.5141C11.5355 24.9515 11.9742 25.2209 12.4923 25.4225C12.9936 25.6171 13.5655 25.7501 14.4039 25.7882C15.244 25.8264 15.512 25.8359 17.6507 25.8359C19.7894 25.8359 20.0578 25.8271 20.8975 25.7882C21.736 25.7501 22.3085 25.6171 22.8091 25.4225C23.3269 25.2209 23.7659 24.9517 24.2042 24.5141C24.6425 24.0765 24.9109 23.6369 25.1125 23.1191C25.3072 22.6185 25.4408 22.046 25.4783 21.2076C25.5165 20.3673 25.5254 20.0995 25.5254 17.9609C25.5254 15.8223 25.5165 15.5539 25.4783 14.7142C25.4401 13.8758 25.3072 13.303 25.1125 12.8027C24.9109 12.285 24.6418 11.846 24.2042 11.4077C23.7665 10.9694 23.3269 10.7004 22.8097 10.4994C22.3085 10.3047 21.7359 10.1712 20.8982 10.1336C20.0585 10.0955 19.79 10.0859 17.6513 10.0859C15.5127 10.0859 15.244 10.0948 14.4039 10.1336Z" fill="white"/>
</svg>
