<svg width="142" height="29" viewBox="0 0 142 29" fill="none" xmlns="http://www.w3.org/2000/svg">
<path d="M13.6033 1.81699C13.9701 1.07374 15.0299 1.07374 15.3967 1.81699L18.5288 8.16318C18.6744 8.45833 18.956 8.6629 19.2817 8.71023L26.2852 9.72789C27.1054 9.84707 27.4329 10.855 26.8394 11.4336L21.7716 16.3734C21.5359 16.6031 21.4284 16.9341 21.484 17.2585L22.6804 24.2337C22.8205 25.0506 21.963 25.6736 21.2294 25.2879L14.9653 21.9946C14.674 21.8415 14.326 21.8415 14.0347 21.9946L7.77059 25.2879C7.03696 25.6736 6.17953 25.0506 6.31964 24.2337L7.51597 17.2585C7.57161 16.9341 7.46406 16.6031 7.22837 16.3734L2.16063 11.4336C1.56711 10.855 1.89462 9.84707 2.71484 9.72789L9.71829 8.71023C10.044 8.6629 10.3256 8.45833 10.4712 8.16318L13.6033 1.81699Z" fill="#FFAA06"/>
<path d="M41.6747 1.81699C42.0415 1.07374 43.1013 1.07374 43.4681 1.81699L46.6002 8.16318C46.7458 8.45833 47.0274 8.6629 47.3531 8.71023L54.3566 9.72789C55.1768 9.84707 55.5043 10.855 54.9108 11.4336L49.843 16.3734C49.6074 16.6031 49.4998 16.9341 49.5554 17.2585L50.7518 24.2337C50.8919 25.0506 50.0345 25.6736 49.3008 25.2879L43.0368 21.9946C42.7454 21.8415 42.3974 21.8415 42.1061 21.9946L35.842 25.2879C35.1084 25.6736 34.2509 25.0506 34.391 24.2337L35.5874 17.2585C35.643 16.9341 35.5355 16.6031 35.2998 16.3734L30.232 11.4336C29.6385 10.855 29.966 9.84707 30.7863 9.72789L37.7897 8.71023C38.1154 8.6629 38.397 8.45833 38.5426 8.16318L41.6747 1.81699Z" fill="#FFAA06"/>
<path d="M69.7461 1.81699C70.1129 1.07374 71.1727 1.07374 71.5396 1.81699L74.6716 8.16318C74.8173 8.45833 75.0988 8.6629 75.4245 8.71023L82.428 9.72789C83.2482 9.84707 83.5757 10.855 82.9822 11.4336L77.9145 16.3734C77.6788 16.6031 77.5712 16.9341 77.6269 17.2585L78.8232 24.2337C78.9633 25.0506 78.1059 25.6736 77.3722 25.2879L71.1082 21.9946C70.8168 21.8415 70.4688 21.8415 70.1775 21.9946L63.9134 25.2879C63.1798 25.6736 62.3223 25.0506 62.4625 24.2337L63.6588 17.2585C63.7144 16.9341 63.6069 16.6031 63.3712 16.3734L58.3035 11.4336C57.7099 10.855 58.0374 9.84707 58.8577 9.72789L65.8611 8.71023C66.1868 8.6629 66.4684 8.45833 66.614 8.16318L69.7461 1.81699Z" fill="#FFAA06"/>
<path d="M97.8175 1.81699C98.1843 1.07374 99.2442 1.07374 99.611 1.81699L102.743 8.16318C102.889 8.45833 103.17 8.6629 103.496 8.71023L110.499 9.72789C111.32 9.84707 111.647 10.855 111.054 11.4336L105.986 16.3734C105.75 16.6031 105.643 16.9341 105.698 17.2585L106.895 24.2337C107.035 25.0506 106.177 25.6736 105.444 25.2879L99.1796 21.9946C98.8883 21.8415 98.5402 21.8415 98.2489 21.9946L91.9848 25.2879C91.2512 25.6736 90.3938 25.0506 90.5339 24.2337L91.7302 17.2585C91.7858 16.9341 91.6783 16.6031 91.4426 16.3734L86.3749 11.4336C85.7813 10.855 86.1089 9.84707 86.9291 9.72789L93.9325 8.71023C94.2582 8.6629 94.5398 8.45833 94.6855 8.16318L97.8175 1.81699Z" fill="#FFAA06"/>
<path d="M125.889 1.81699C126.256 1.07374 127.316 1.07374 127.683 1.81699L130.815 8.16318C130.96 8.45833 131.242 8.6629 131.567 8.71023L138.571 9.72789C139.391 9.84707 139.719 10.855 139.125 11.4336L134.057 16.3734C133.822 16.6031 133.714 16.9341 133.77 17.2585L134.966 24.2337C135.106 25.0506 134.249 25.6736 133.515 25.2879L127.251 21.9946C126.96 21.8415 126.612 21.8415 126.32 21.9946L120.056 25.2879C119.323 25.6736 118.465 25.0506 118.605 24.2337L119.802 17.2585C119.857 16.9341 119.75 16.6031 119.514 16.3734L114.446 11.4336C113.853 10.855 114.18 9.84707 115.001 9.72789L122.004 8.71023C122.33 8.6629 122.611 8.45833 122.757 8.16318L125.889 1.81699Z" fill="#E0E0E0"/>
<mask id="mask0_1243_6367" style="mask-type:alpha" maskUnits="userSpaceOnUse" x="114" y="1" width="26" height="25">
<path d="M125.889 1.81699C126.256 1.07374 127.316 1.07374 127.683 1.81699L130.815 8.16318C130.96 8.45833 131.242 8.6629 131.567 8.71023L138.571 9.72789C139.391 9.84707 139.719 10.855 139.125 11.4336L134.057 16.3734C133.822 16.6031 133.714 16.9341 133.77 17.2585L134.966 24.2337C135.106 25.0506 134.249 25.6736 133.515 25.2879L127.251 21.9946C126.96 21.8415 126.612 21.8415 126.32 21.9946L120.056 25.2879C119.323 25.6736 118.465 25.0506 118.605 24.2337L119.802 17.2585C119.857 16.9341 119.75 16.6031 119.514 16.3734L114.446 11.4336C113.853 10.855 114.18 9.84707 115.001 9.72789L122.004 8.71023C122.33 8.6629 122.611 8.45833 122.757 8.16318L125.889 1.81699Z" fill="#E0E0E0"/>
</mask>
<g mask="url(#mask0_1243_6367)">
<rect x="114" y="-2" width="17" height="31" fill="#FFAA06"/>
</g>
</svg>
