<svg width="681" height="13" viewBox="0 0 681 13" fill="none" xmlns="http://www.w3.org/2000/svg">
<path d="M2 2L12.5781 8.15621C19.0934 11.9479 27.2191 11.9479 33.7344 8.15621C40.2496 4.36449 48.3754 4.36449 54.8906 8.15621C61.4059 11.9479 69.5316 11.9479 76.0469 8.15621C82.5621 4.36449 90.6879 4.36449 97.2031 8.15621C103.718 11.9479 111.844 11.9479 118.359 8.15621C124.875 4.36449 133 4.36449 139.516 8.15621C146.031 11.9479 154.157 11.9479 160.672 8.15621C167.187 4.36449 175.313 4.36449 181.828 8.15621C188.343 11.9479 196.469 11.9479 202.984 8.15621C209.5 4.36449 217.625 4.36449 224.141 8.15621C230.656 11.9479 238.782 11.9479 245.297 8.15621C251.812 4.36449 259.938 4.36449 266.453 8.15621C272.968 11.9479 281.094 11.9479 287.609 8.15621C294.125 4.36449 302.25 4.36449 308.766 8.15621C315.281 11.9479 323.407 11.9479 329.922 8.15621C336.437 4.36449 344.563 4.36449 351.078 8.15621C357.593 11.9479 365.719 11.9479 372.234 8.15621C378.75 4.36449 386.875 4.36449 393.391 8.15621C399.906 11.9479 408.032 11.9479 414.547 8.15621C421.062 4.36449 429.188 4.36449 435.703 8.15621C442.218 11.9479 450.344 11.9479 456.859 8.15621C463.375 4.36449 471.5 4.36449 478.016 8.15621C484.531 11.9479 492.657 11.9479 499.172 8.15621C505.687 4.36449 513.813 4.36449 520.328 8.15621C526.843 11.9479 534.969 11.9479 541.484 8.15621C548 4.36449 556.125 4.36449 562.641 8.15621C569.156 11.9479 577.282 11.9479 583.797 8.15621C590.312 4.36449 598.438 4.36449 604.953 8.15621C611.468 11.9479 619.594 11.9479 626.109 8.15621C632.625 4.36449 640.75 4.36449 647.266 8.15621C653.781 11.9479 661.907 11.9479 668.422 8.15621L679 2" stroke="#06D24E" stroke-width="4" stroke-linecap="round" stroke-linejoin="round"/>
</svg>
